# xmcd
#
# Track frame offsets:
#	182
#	14252
#	28340
#	37290
#	48762
#	61702
#	74242
#	86725
#	101730
#	113225
#	125560
#	135870
#	145107
#	156045
#	166625
#	179527
#
# Disc length: 2523 seconds
#
# Revision: 1
# Processed by: cddbd v1.4PL0 Copyright (c) Steve Scherf et al.
# Submitted via: audiograbber 1.81.02
#
DISCID=dd09d910
DTITLE=Lynn Anderson and Kitty Wells - Queens Of Country
DYEAR=1900
DGENRE=Country
TTITLE0=Rose Garden
TTITLE1=Cry
TTITLE2=Rocky Top
TTITLE3=Listen To A Country Song
TTITLE4=Top Of The World
TTITLE5=I'v Never Loved Anyone More
TTITLE6=Stand By Your Man
TTITLE7=Could I Have This Dance
TTITLE8=It Wasn't God Who Made Honky Tonk Angels
TTITLE9=This White Circle On My Finger
TTITLE10=Release Me
TTITLE11=I'll Repossess My Heart
TTITLE12=Mommy For A Day
TTITLE13=Searching (For Someone Like You)
TTITLE14=Making Believe
TTITLE15=I Can't Stop Loving You
EXTD=
EXTT0=
EXTT1=
EXTT2=
EXTT3=
EXTT4=
EXTT5=
EXTT6=
EXTT7=
EXTT8=
EXTT9=
EXTT10=
EXTT11=
EXTT12=
EXTT13=
EXTT14=
EXTT15=
PLAYORDER=
